# Blender v2.67 (sub 0) OBJ File: 'op.blend'
# www.blender.org
o Cube
v -0.046903 1.036257 1.585867
v -0.046903 1.036257 -1.585867
v 0.046903 1.036257 -1.585866
v 0.046902 1.036257 1.585867
v -0.046903 -1.036257 1.585866
v -0.046902 -1.036257 -1.585868
v 0.046903 -1.036257 -1.585866
v 0.046903 -1.036257 1.585867
vt 0.000000 0.000000
vt 0.000100 0.999900
vt 0.000100 0.000100
vt 0.999900 0.999900
vt 0.999900 0.000100
vn 0.577349 -0.577349 -0.577319
vn 0.577349 -0.577349 0.577349
vn -0.577349 -0.577349 0.577319
vn 0.577349 0.577349 -0.577319
vn -0.577319 0.577349 -0.577349
vn -0.577349 0.577349 0.577319
vn 0.577319 0.577349 0.577349
vn -0.577319 -0.577349 -0.577349
s 1
f 1/1/1 2/1/2 3/1/3
f 5/1/4 8/1/5 7/1/6
f 1/1/1 5/1/4 6/1/7
f 2/1/2 6/1/7 3/1/3
f 3/2/3 7/3/6 4/4/8
f 5/1/4 1/1/1 4/1/8
f 4/1/8 1/1/1 3/1/3
f 6/1/7 5/1/4 7/1/6
f 2/1/2 1/1/1 6/1/7
f 6/1/7 7/1/6 3/1/3
f 7/3/6 8/5/5 4/4/8
f 8/1/5 5/1/4 4/1/8
