# Blender v2.67 (sub 0) OBJ File: 'podloga.blend'
# www.blender.org
o Cube.001_Cube.004
v 0.232175 0.082695 -4.612944
v 0.232175 0.082695 -6.612943
v 2.232175 0.082695 -6.612943
v 2.232175 0.082695 -4.612944
v 0.232175 0.236428 -4.612944
v 0.232175 0.236428 -6.612943
v 2.232175 0.236428 -6.612943
v 2.232175 0.236428 -4.612944
v 0.232175 0.236428 -4.612944
v 0.232175 0.236428 -6.612943
v 2.232175 0.236428 -6.612943
v 2.232175 0.236428 -4.612944
v -1.755593 0.082695 -4.612944
v -1.755593 0.082695 -6.612943
v 0.244407 0.082695 -6.612943
v 0.244407 0.082695 -4.612944
v -1.755593 0.236428 -4.612944
v -1.755593 0.236428 -6.612943
v 0.244407 0.236428 -6.612943
v 0.244407 0.236428 -4.612944
v -1.755593 0.236428 -4.612944
v -1.755593 0.236428 -6.612943
v 0.244407 0.236428 -6.612943
v 0.244407 0.236428 -4.612944
v 0.232175 0.082695 -2.643524
v 0.232175 0.082695 -4.643523
v 2.232175 0.082695 -4.643523
v 2.232175 0.082695 -2.643524
v 0.232175 0.236428 -2.643524
v 0.232175 0.236428 -4.643523
v 2.232175 0.236428 -4.643523
v 2.232175 0.236428 -2.643524
v 0.232175 0.236428 -2.643524
v 0.232175 0.236428 -4.643523
v 2.232175 0.236428 -4.643523
v 2.232175 0.236428 -2.643524
v -1.755593 0.082695 -2.643524
v -1.755593 0.082695 -4.643523
v 0.244407 0.082695 -4.643523
v 0.244407 0.082695 -2.643524
v -1.755593 0.236428 -2.643524
v -1.755593 0.236428 -4.643523
v 0.244407 0.236428 -4.643523
v 0.244407 0.236428 -2.643524
v -1.755593 0.236428 -2.643524
v -1.755593 0.236428 -4.643523
v 0.244407 0.236428 -4.643523
v 0.244407 0.236428 -2.643524
v 0.232175 0.082695 3.200885
v 0.232175 0.082695 1.200885
v 2.232175 0.082695 1.200885
v 2.232175 0.082695 3.200885
v 0.232175 0.236428 3.200885
v 0.232175 0.236428 1.200885
v 2.232175 0.236428 1.200885
v 2.232175 0.236428 3.200885
v 0.232175 0.236428 3.200885
v 0.232175 0.236428 1.200885
v 2.232175 0.236428 1.200885
v 2.232175 0.236428 3.200885
v -1.755593 0.082695 3.200885
v -1.755593 0.082695 1.200885
v 0.244407 0.082695 1.200885
v 0.244407 0.082695 3.200885
v -1.755593 0.236428 3.200885
v -1.755593 0.236428 1.200885
v 0.244407 0.236428 1.200885
v 0.244407 0.236428 3.200885
v -1.755593 0.236428 3.200885
v -1.755593 0.236428 1.200885
v 0.244407 0.236428 1.200885
v 0.244407 0.236428 3.200885
v 0.232175 0.082695 5.170304
v 0.232175 0.082695 3.170304
v 2.232175 0.082695 3.170304
v 2.232175 0.082695 5.170304
v 0.232175 0.236428 5.170304
v 0.232175 0.236428 3.170304
v 2.232175 0.236428 3.170304
v 2.232175 0.236428 5.170304
v 0.232175 0.236428 5.170304
v 0.232175 0.236428 3.170304
v 2.232175 0.236428 3.170304
v 2.232175 0.236428 5.170304
v -1.755593 0.082695 5.170304
v -1.755593 0.082695 3.170304
v 0.244407 0.082695 3.170304
v 0.244407 0.082695 5.170304
v -1.755593 0.236428 5.170304
v -1.755593 0.236428 3.170304
v 0.244407 0.236428 3.170304
v 0.244407 0.236428 5.170304
v -1.755593 0.236428 5.170304
v -1.755593 0.236428 3.170304
v 0.244407 0.236428 3.170304
v 0.244407 0.236428 5.170304
v 0.232175 0.082695 -0.742464
v 0.232175 0.082695 -2.742464
v 2.232175 0.082695 -2.742464
v 2.232175 0.082695 -0.742464
v 0.232175 0.236428 -0.742464
v 0.232175 0.236428 -2.742464
v 2.232175 0.236428 -2.742464
v 2.232175 0.236428 -0.742464
v 0.232175 0.236428 -0.742464
v 0.232175 0.236428 -2.742464
v 2.232175 0.236428 -2.742464
v 2.232175 0.236428 -0.742464
v -1.755593 0.082695 -0.742464
v -1.755593 0.082695 -2.742464
v 0.244407 0.082695 -2.742464
v 0.244407 0.082695 -0.742464
v -1.755593 0.236428 -0.742464
v -1.755593 0.236428 -2.742464
v 0.244407 0.236428 -2.742464
v 0.244407 0.236428 -0.742464
v -1.755593 0.236428 -0.742464
v -1.755593 0.236428 -2.742464
v 0.244407 0.236428 -2.742464
v 0.244407 0.236428 -0.742464
v 0.232175 0.082695 1.226955
v 0.232175 0.082695 -0.773045
v 2.232175 0.082695 -0.773045
v 2.232175 0.082695 1.226955
v 0.232175 0.236428 1.226955
v 0.232175 0.236428 -0.773045
v 2.232175 0.236428 -0.773045
v 2.232175 0.236428 1.226955
v 0.232175 0.236428 1.226955
v 0.232175 0.236428 -0.773045
v 2.232175 0.236428 -0.773045
v 2.232175 0.236428 1.226955
v -1.755593 0.082695 1.226955
v -1.755593 0.082695 -0.773045
v 0.244407 0.082695 -0.773045
v 0.244407 0.082695 1.226955
v -1.755593 0.236428 1.226955
v -1.755593 0.236428 -0.773045
v 0.244407 0.236428 -0.773045
v 0.244407 0.236428 1.226955
v -1.755593 0.236428 1.226955
v -1.755593 0.236428 -0.773045
v 0.244407 0.236428 -0.773045
v 0.244407 0.236428 1.226955
vt 0.000000 0.000000
vt 0.999900 0.000100
vt 0.999900 0.999900
vt 0.000100 0.999900
vt 0.000100 0.000100
vn -1.000000 0.000000 0.000000
vn 0.000000 0.000000 -1.000000
vn 1.000000 -0.000000 0.000000
vn 0.000000 0.000000 1.000000
vn 0.000000 -1.000000 0.000000
vn 0.000000 1.000000 0.000000
s off
f 5/1/1 6/1/1 1/1/1
f 6/1/2 7/1/2 3/1/2
f 7/1/3 8/1/3 4/1/3
f 8/1/4 5/1/4 1/1/4
f 1/1/5 2/1/5 3/1/5
f 8/2/6 7/3/6 6/4/6
f 12/2/6 11/3/6 10/4/6
f 17/1/1 18/1/1 13/1/1
f 18/1/2 19/1/2 15/1/2
f 19/1/3 20/1/3 16/1/3
f 20/1/4 17/1/4 13/1/4
f 13/1/5 14/1/5 15/1/5
f 20/2/6 19/3/6 18/4/6
f 24/2/6 23/3/6 22/4/6
f 29/1/1 30/1/1 25/1/1
f 30/1/2 31/1/2 27/1/2
f 31/1/3 32/1/3 28/1/3
f 32/1/4 29/1/4 25/1/4
f 25/1/5 26/1/5 27/1/5
f 32/2/6 31/3/6 30/4/6
f 36/2/6 35/3/6 34/4/6
f 41/1/1 42/1/1 37/1/1
f 42/1/2 43/1/2 39/1/2
f 43/1/3 44/1/3 40/1/3
f 44/1/4 41/1/4 37/1/4
f 37/1/5 38/1/5 39/1/5
f 44/2/6 43/3/6 42/4/6
f 48/2/6 47/3/6 46/4/6
f 53/1/1 54/1/1 49/1/1
f 54/1/2 55/1/2 50/1/2
f 55/1/3 56/1/3 52/1/3
f 56/1/4 53/1/4 49/1/4
f 49/1/5 50/1/5 51/1/5
f 56/2/6 55/3/6 54/4/6
f 60/2/6 59/3/6 58/4/6
f 65/1/1 66/1/1 61/1/1
f 66/1/2 67/1/2 62/1/2
f 67/1/3 68/1/3 64/1/3
f 68/1/4 65/1/4 61/1/4
f 61/1/5 62/1/5 63/1/5
f 68/2/6 67/3/6 66/4/6
f 72/2/6 71/3/6 70/4/6
f 77/1/1 78/1/1 73/1/1
f 78/1/2 79/1/2 75/1/2
f 79/1/3 80/1/3 76/1/3
f 80/1/4 77/1/4 73/1/4
f 73/1/5 74/1/5 75/1/5
f 80/2/6 79/3/6 78/4/6
f 84/2/6 83/3/6 82/4/6
f 89/1/1 90/1/1 85/1/1
f 90/1/2 91/1/2 87/1/2
f 91/1/3 92/1/3 88/1/3
f 92/1/4 89/1/4 85/1/4
f 85/1/5 86/1/5 87/1/5
f 92/2/6 91/3/6 90/4/6
f 96/2/6 95/3/6 94/4/6
f 101/1/1 102/1/1 97/1/1
f 102/1/2 103/1/2 99/1/2
f 103/1/3 104/1/3 100/1/3
f 104/1/4 101/1/4 97/1/4
f 97/1/5 98/1/5 99/1/5
f 104/2/6 103/3/6 102/4/6
f 108/2/6 107/3/6 106/4/6
f 113/1/1 114/1/1 109/1/1
f 114/1/2 115/1/2 111/1/2
f 115/1/3 116/1/3 112/1/3
f 116/1/4 113/1/4 109/1/4
f 109/1/5 110/1/5 111/1/5
f 116/2/6 115/3/6 114/4/6
f 120/2/6 119/3/6 118/4/6
f 125/1/1 126/1/1 121/1/1
f 126/1/2 127/1/2 122/1/2
f 127/1/3 128/1/3 124/1/3
f 128/1/4 125/1/4 121/1/4
f 121/1/5 122/1/5 123/1/5
f 128/2/6 127/3/6 126/4/6
f 132/2/6 131/3/6 130/4/6
f 137/1/1 138/1/1 133/1/1
f 138/1/2 139/1/2 134/1/2
f 139/1/3 140/1/3 136/1/3
f 140/1/4 137/1/4 133/1/4
f 133/1/5 134/1/5 135/1/5
f 140/2/6 139/3/6 138/4/6
f 144/2/6 143/3/6 142/4/6
f 6/1/1 2/1/1 1/1/1
f 2/1/2 6/1/2 3/1/2
f 3/1/3 7/1/3 4/1/3
f 4/1/4 8/1/4 1/1/4
f 4/1/5 1/1/5 3/1/5
f 5/5/6 8/2/6 6/4/6
f 9/5/6 12/2/6 10/4/6
f 18/1/1 14/1/1 13/1/1
f 14/1/2 18/1/2 15/1/2
f 15/1/3 19/1/3 16/1/3
f 16/1/4 20/1/4 13/1/4
f 16/1/5 13/1/5 15/1/5
f 17/5/6 20/2/6 18/4/6
f 21/5/6 24/2/6 22/4/6
f 30/1/1 26/1/1 25/1/1
f 26/1/2 30/1/2 27/1/2
f 27/1/3 31/1/3 28/1/3
f 28/1/4 32/1/4 25/1/4
f 28/1/5 25/1/5 27/1/5
f 29/5/6 32/2/6 30/4/6
f 33/5/6 36/2/6 34/4/6
f 42/1/1 38/1/1 37/1/1
f 38/1/2 42/1/2 39/1/2
f 39/1/3 43/1/3 40/1/3
f 40/1/4 44/1/4 37/1/4
f 40/1/5 37/1/5 39/1/5
f 41/5/6 44/2/6 42/4/6
f 45/5/6 48/2/6 46/4/6
f 54/1/1 50/1/1 49/1/1
f 55/1/2 51/1/2 50/1/2
f 51/1/3 55/1/3 52/1/3
f 52/1/4 56/1/4 49/1/4
f 52/1/5 49/1/5 51/1/5
f 53/5/6 56/2/6 54/4/6
f 57/5/6 60/2/6 58/4/6
f 66/1/1 62/1/1 61/1/1
f 67/1/2 63/1/2 62/1/2
f 63/1/3 67/1/3 64/1/3
f 64/1/4 68/1/4 61/1/4
f 64/1/5 61/1/5 63/1/5
f 65/5/6 68/2/6 66/4/6
f 69/5/6 72/2/6 70/4/6
f 78/1/1 74/1/1 73/1/1
f 74/1/2 78/1/2 75/1/2
f 75/1/3 79/1/3 76/1/3
f 76/1/4 80/1/4 73/1/4
f 76/1/5 73/1/5 75/1/5
f 77/5/6 80/2/6 78/4/6
f 81/5/6 84/2/6 82/4/6
f 90/1/1 86/1/1 85/1/1
f 86/1/2 90/1/2 87/1/2
f 87/1/3 91/1/3 88/1/3
f 88/1/4 92/1/4 85/1/4
f 88/1/5 85/1/5 87/1/5
f 89/5/6 92/2/6 90/4/6
f 93/5/6 96/2/6 94/4/6
f 102/1/1 98/1/1 97/1/1
f 98/1/2 102/1/2 99/1/2
f 99/1/3 103/1/3 100/1/3
f 100/1/4 104/1/4 97/1/4
f 100/1/5 97/1/5 99/1/5
f 101/5/6 104/2/6 102/4/6
f 105/5/6 108/2/6 106/4/6
f 114/1/1 110/1/1 109/1/1
f 110/1/2 114/1/2 111/1/2
f 111/1/3 115/1/3 112/1/3
f 112/1/4 116/1/4 109/1/4
f 112/1/5 109/1/5 111/1/5
f 113/5/6 116/2/6 114/4/6
f 117/5/6 120/2/6 118/4/6
f 126/1/1 122/1/1 121/1/1
f 127/1/2 123/1/2 122/1/2
f 123/1/3 127/1/3 124/1/3
f 124/1/4 128/1/4 121/1/4
f 124/1/5 121/1/5 123/1/5
f 125/5/6 128/2/6 126/4/6
f 129/5/6 132/2/6 130/4/6
f 138/1/1 134/1/1 133/1/1
f 139/1/2 135/1/2 134/1/2
f 135/1/3 139/1/3 136/1/3
f 136/1/4 140/1/4 133/1/4
f 136/1/5 133/1/5 135/1/5
f 137/5/6 140/2/6 138/4/6
f 141/5/6 144/2/6 142/4/6
