# Blender v2.67 (sub 0) OBJ File: 'duch.blend'
# www.blender.org
o Cube
v 1.000000 0.047494 -1.000000
v 1.000000 0.047494 1.000000
v -1.000000 0.047494 1.000000
v -1.000000 0.047494 -1.000000
v 0.400001 3.357342 -0.499999
v 0.399999 3.357342 0.500001
v -0.200000 3.357342 0.495000
v -0.200000 3.357342 -0.500000
v -0.362205 3.369078 0.448479
v -0.362205 3.369078 -0.448479
v 0.534753 3.369078 -0.448479
v 0.534753 3.369078 0.448479
v -0.362205 4.266036 0.448479
v -0.362205 4.266036 -0.448479
v 0.534753 4.266036 -0.448479
v 0.534753 4.266036 0.448479
vt 0.665986 0.345758
vt 0.998978 0.344736
vt 1.000000 0.677729
vt 0.000000 0.000000
vt 1.000000 0.000000
vt 1.000000 1.000000
vt 0.665986 0.000000
vt 0.583793 0.344225
vt 0.417296 0.344736
vt 0.665986 0.345796
vt 0.564964 0.686174
vt 0.332993 0.344736
vt 0.332993 0.000000
vt 0.249993 0.352431
vt 0.084329 0.352939
vt 0.232050 0.352939
vt 0.332993 0.693302
vt 0.132152 0.353246
vt 0.577374 0.835786
vt 0.576916 0.686446
vt 0.665986 0.835514
vt 0.666444 0.149615
vt 0.665986 0.000275
vt 0.756008 0.149340
vt 0.333451 0.835788
vt 0.332993 0.686448
vt 0.422276 0.686174
vt 0.666426 0.828365
vt 0.665986 0.679025
vt 0.755542 0.678750
vt 0.665986 0.195396
vt 0.815326 0.194938
vt 0.815784 0.344278
vt 0.667007 0.678750
vt 0.000000 1.000000
vt 0.332993 0.001022
vt 0.465065 0.685958
vt 0.000000 0.001022
vt 0.000000 0.694324
vt 0.665527 0.686174
vt 0.755550 0.000000
vt 0.422735 0.835514
vt 0.755983 0.828091
vt 0.666444 0.344736
vn 0.620777 -0.491501 -0.610736
vn 0.620777 -0.491501 0.610736
vn -0.636311 -0.476058 0.606983
vn 0.523789 0.662465 -0.535478
vn -0.502945 0.676351 -0.538102
vn -0.505295 0.677297 0.534684
vn 0.521989 0.662709 0.536912
vn -0.577349 0.577349 0.577349
vn -0.577349 0.577349 -0.577349
vn -0.577349 -0.577349 0.577349
vn 0.577349 0.577349 -0.577349
vn -0.577349 -0.577349 -0.577349
vn 0.577349 0.577349 0.577349
vn 0.577349 -0.577349 0.577349
vn 0.577349 -0.577349 -0.577349
vn -0.636311 -0.476119 -0.606952
s 1
f 1/1/1 2/2/2 3/3/3
f 5/4/4 8/5/5 7/6/6
f 1/7/1 5/8/4 6/9/7
f 2/10/2 6/11/7 3/12/3
f 3/13/3 7/14/6 8/15/5
f 5/16/4 1/17/1 8/18/5
f 13/19/8 14/20/9 9/21/10
f 14/22/9 15/23/11 10/24/12
f 15/25/11 16/26/13 12/27/14
f 16/28/13 13/29/8 9/30/10
f 9/4/10 10/5/12 11/6/15
f 16/31/13 15/32/11 14/33/9
f 4/34/16 1/1/1 3/3/3
f 6/35/7 5/4/4 7/6/6
f 2/36/2 1/7/1 6/9/7
f 6/11/7 7/37/6 3/12/3
f 4/38/16 3/13/3 8/15/5
f 1/17/1 4/39/16 8/18/5
f 14/20/9 10/40/12 9/21/10
f 15/23/11 11/41/15 10/24/12
f 11/42/15 15/25/11 12/27/14
f 12/43/14 16/28/13 9/30/10
f 12/35/14 9/4/10 11/6/15
f 13/44/8 16/31/13 14/33/9
