# Blender v2.67 (sub 0) OBJ File: 'kolce.blend'
# www.blender.org
o Cube.001_Cube.005
v -0.703298 -0.006448 -1.643236
v -0.703298 -0.006448 -2.887472
v 0.703298 -0.006448 -2.887472
v 0.703298 -0.006448 -1.643236
v -0.042749 1.993551 -2.153168
v -0.039792 1.993551 -2.300178
v 0.032482 1.845257 -2.311476
v 0.026791 1.845257 -2.164086
v -0.703298 -0.006448 -2.890191
v -0.703298 -0.006448 -4.134427
v 0.703298 -0.006448 -4.134427
v 0.703298 -0.006448 -2.890191
v -0.042749 1.993551 -3.400123
v -0.039792 1.993551 -3.547133
v 0.032482 1.845257 -3.558431
v 0.026791 1.845257 -3.411041
v -0.703298 -0.006448 -0.938507
v -0.703298 -0.006448 -2.182743
v 0.703298 -0.006448 -2.182743
v 0.703298 -0.006448 -0.938507
v -0.042749 1.993551 -1.448438
v -0.039792 1.993551 -1.595448
v 0.032482 1.845257 -1.606747
v 0.026791 1.845257 -1.459356
v -0.703298 -0.006448 -2.185462
v -0.703298 -0.006448 -3.429698
v 0.703298 -0.006448 -3.429698
v 0.703298 -0.006448 -2.185462
v -0.042749 1.993551 -2.695394
v -0.039792 1.993551 -2.842403
v 0.032482 1.845257 -2.853702
v 0.026791 1.845257 -2.706311
v -0.703298 -0.006449 3.505491
v -0.703298 -0.006449 2.261255
v 0.703298 -0.006449 2.261255
v 0.703298 -0.006449 3.505491
v -0.042749 1.993551 2.995559
v -0.039792 1.993551 2.848549
v 0.032482 1.845257 2.837251
v 0.026791 1.845257 2.984641
v -0.703298 -0.006449 2.258536
v -0.703298 -0.006449 1.014300
v 0.703298 -0.006449 1.014300
v 0.703298 -0.006449 2.258536
v -0.042749 1.993551 1.748604
v -0.039792 1.993551 1.601594
v 0.032482 1.845257 1.590296
v 0.026791 1.845257 1.737686
v -0.703298 -0.006449 4.210220
v -0.703298 -0.006449 2.965984
v 0.703298 -0.006449 2.965984
v 0.703298 -0.006449 4.210220
v -0.042749 1.993551 3.700289
v -0.039792 1.993551 3.553278
v 0.032482 1.845257 3.541980
v 0.026791 1.845257 3.689371
v -0.703298 -0.006449 2.963265
v -0.703298 -0.006449 1.719029
v 0.703298 -0.006449 1.719029
v 0.703298 -0.006449 2.963265
v -0.042749 1.993551 2.453333
v -0.039792 1.993551 2.306323
v 0.032482 1.845257 2.295025
v 0.026791 1.845257 2.442415
v -0.703298 -0.006448 0.903139
v -0.703298 -0.006448 -0.341097
v 0.703298 -0.006448 -0.341097
v 0.703298 -0.006448 0.903139
v -0.042749 1.993551 0.393207
v -0.039792 1.993551 0.246197
v 0.032482 1.845257 0.234899
v 0.026791 1.845257 0.382289
v -0.703298 -0.006448 -0.343816
v -0.703298 -0.006448 -1.588052
v 0.703298 -0.006448 -1.588052
v 0.703298 -0.006448 -0.343816
v -0.042749 1.993551 -0.853748
v -0.039792 1.993551 -1.000758
v 0.032482 1.845257 -1.012056
v 0.026791 1.845257 -0.864666
v -0.703298 -0.006448 1.607869
v -0.703298 -0.006448 0.363633
v 0.703298 -0.006448 0.363633
v 0.703298 -0.006448 1.607869
v -0.042749 1.993551 1.097937
v -0.039792 1.993551 0.950927
v 0.032482 1.845257 0.939629
v 0.026791 1.845257 1.087019
v -0.703298 -0.006448 0.360914
v -0.703298 -0.006448 -0.883323
v 0.703298 -0.006448 -0.883323
v 0.703298 -0.006448 0.360914
v -0.042749 1.993551 -0.149018
v -0.039792 1.993551 -0.296028
v 0.032482 1.845257 -0.307327
v 0.026791 1.845257 -0.159936
vt 0.414635 0.229429
vt 0.429808 0.214573
vt 0.628785 0.298706
vt 0.442775 0.204708
vt 0.628785 0.119010
vt 0.426552 0.190907
vt 0.493782 0.000414
vt 0.000000 0.000000
vt 1.000000 0.000000
vt 0.000000 1.000000
vt 1.000000 1.000000
vt 0.254581 0.221458
vt 0.275815 0.221298
vt 0.360634 0.419983
vt 0.691668 0.999248
vt 0.670372 0.999586
vt 0.595159 0.812101
vt 0.074057 0.420971
vt 0.095291 0.420811
vt 0.180110 0.619496
vt 0.096923 0.807471
vt 0.075627 0.807809
vt 0.000414 0.620324
vt 0.074057 0.221458
vt 0.095291 0.221298
vt 0.180110 0.419983
vt 0.872192 0.999248
vt 0.850895 0.999586
vt 0.775683 0.812101
vt 0.872192 0.810936
vt 0.850895 0.811274
vt 0.775683 0.623789
vt 0.254581 0.620484
vt 0.275815 0.620324
vt 0.360634 0.819009
vt 0.906646 0.223598
vt 0.885349 0.223936
vt 0.810136 0.036451
vt 0.254581 0.420971
vt 0.275815 0.420811
vt 0.360634 0.619496
vt 0.872192 0.611423
vt 0.850895 0.611761
vt 0.775683 0.424276
vt 0.228260 0.010332
vt 0.247036 0.000414
vt 0.413807 0.137736
vt 0.204959 0.000414
vt 0.214874 0.019264
vt 0.081534 0.171013
vt 0.703256 0.224923
vt 0.724490 0.224763
vt 0.809309 0.423448
vt 0.691668 0.810936
vt 0.670372 0.811274
vt 0.595159 0.623789
vt 0.703255 0.000574
vt 0.724490 0.000414
vt 0.809309 0.199099
vt 0.511144 0.810936
vt 0.489848 0.811274
vt 0.414635 0.623789
vt 0.668802 0.424436
vt 0.690036 0.424276
vt 0.774855 0.622961
vt 0.906646 0.411910
vt 0.885349 0.412248
vt 0.810136 0.224763
vt 0.488278 0.424436
vt 0.509512 0.424276
vt 0.594331 0.622961
vt 0.096923 0.995783
vt 0.075627 0.996121
vt 0.000414 0.808636
vt 0.499440 0.423448
vt 0.180938 0.419983
vt 0.774855 0.812101
vt 0.000414 0.619496
vt 0.180110 0.620324
vt 0.000414 0.419983
vt 0.955379 0.812101
vt 0.955379 0.623789
vt 0.180938 0.819009
vt 0.989833 0.036451
vt 0.180938 0.619496
vt 0.955379 0.424276
vt 0.254290 0.220471
vt 0.000414 0.010669
vt 0.629613 0.423448
vt 0.774855 0.623789
vt 0.629613 0.199099
vt 0.594331 0.623789
vt 0.595159 0.622961
vt 0.989833 0.224763
vt 0.414635 0.622961
vt 0.180110 0.808636
vn -0.054506 0.899625 0.433180
vn -0.042695 0.910215 -0.411878
vn -0.646107 -0.422926 -0.635304
vn 0.890103 0.415326 -0.187536
vn 0.652974 -0.415784 -0.633015
vn 0.909177 0.394360 0.133610
vn 0.656117 -0.423719 0.624409
vn -0.649129 -0.431257 0.626545
vn 0.890103 0.415326 -0.187506
vn 0.656117 -0.423719 0.624439
s 1
f 5/1/1 6/2/2 2/3/3
f 6/2/2 7/4/4 3/5/5
f 7/4/4 8/6/6 4/7/7
f 8/8/6 5/9/1 4/10/7
f 1/8/8 2/9/3 3/11/5
f 8/8/6 7/9/4 6/11/2
f 13/12/1 14/13/2 10/14/3
f 14/8/2 15/9/9 11/11/5
f 15/15/9 16/16/6 12/17/7
f 16/8/6 13/9/1 12/10/7
f 9/8/8 10/9/3 11/11/5
f 16/8/6 15/9/9 14/11/2
f 21/18/1 22/19/2 18/20/3
f 22/8/2 23/9/9 19/11/5
f 23/21/9 24/22/6 20/23/7
f 24/8/6 21/9/1 20/10/7
f 17/8/8 18/9/3 19/11/5
f 24/8/6 23/9/9 22/11/2
f 29/24/1 30/25/2 26/26/3
f 30/8/2 31/9/4 27/11/5
f 31/27/4 32/28/6 28/29/7
f 32/8/6 29/9/1 28/10/7
f 25/8/8 26/9/3 27/11/5
f 32/8/6 31/9/4 30/11/2
f 37/8/1 38/9/2 34/11/3
f 38/8/2 39/9/9 35/11/5
f 39/30/9 40/31/6 36/32/7
f 40/8/6 37/9/1 36/10/7
f 33/8/8 34/9/3 35/11/5
f 40/8/6 39/9/9 38/11/2
f 45/33/1 46/34/2 42/35/3
f 46/8/2 47/9/9 43/11/5
f 47/36/9 48/37/6 44/38/7
f 48/8/6 45/9/1 44/10/7
f 41/8/8 42/9/3 43/11/5
f 48/8/6 47/9/9 46/11/2
f 53/39/1 54/40/2 50/41/3
f 54/8/2 55/9/9 51/11/5
f 55/42/9 56/43/6 52/44/10
f 56/8/6 53/9/1 52/10/10
f 49/8/8 50/9/3 51/11/5
f 56/8/6 55/9/9 54/11/2
f 61/45/1 62/46/2 58/47/3
f 62/8/2 63/9/9 59/11/5
f 63/48/9 64/49/6 60/50/10
f 64/49/6 61/45/1 60/50/10
f 57/8/8 58/9/3 59/11/5
f 64/8/6 63/9/9 62/11/2
f 69/51/1 70/52/2 66/53/3
f 70/8/2 71/9/9 67/11/5
f 71/54/9 72/55/6 68/56/7
f 72/8/6 69/9/1 68/10/7
f 65/8/8 66/9/3 67/11/5
f 72/8/6 71/9/9 70/11/2
f 77/57/1 78/58/2 74/59/3
f 78/8/2 79/9/9 75/11/5
f 79/60/9 80/61/6 76/62/7
f 80/8/6 77/9/1 76/10/7
f 73/8/8 74/9/3 75/11/5
f 80/8/6 79/9/9 78/11/2
f 85/63/1 86/64/2 82/65/3
f 86/8/2 87/9/9 83/11/5
f 87/66/9 88/67/6 84/68/10
f 88/8/6 85/9/1 84/10/10
f 81/8/8 82/9/3 83/11/5
f 88/8/6 87/9/9 86/11/2
f 93/69/1 94/70/2 90/71/3
f 94/8/2 95/9/9 91/11/5
f 95/72/9 96/73/6 92/74/10
f 96/8/6 93/9/1 92/10/10
f 89/8/8 90/9/3 91/11/5
f 96/8/6 95/9/9 94/11/2
f 1/75/8 5/1/1 2/3/3
f 2/3/3 6/2/2 3/5/5
f 3/5/5 7/4/4 4/7/7
f 5/9/1 1/11/8 4/10/7
f 4/10/7 1/8/8 3/11/5
f 5/10/1 8/8/6 6/11/2
f 9/76/8 13/12/1 10/14/3
f 10/10/3 14/8/2 11/11/5
f 11/77/5 15/15/9 12/17/7
f 13/9/1 9/11/8 12/10/7
f 12/10/7 9/8/8 11/11/5
f 13/10/1 16/8/6 14/11/2
f 17/78/8 21/18/1 18/20/3
f 18/10/3 22/8/2 19/11/5
f 19/79/5 23/21/9 20/23/7
f 21/9/1 17/11/8 20/10/7
f 20/10/7 17/8/8 19/11/5
f 21/10/1 24/8/6 22/11/2
f 25/80/8 29/24/1 26/26/3
f 26/10/3 30/8/2 27/11/5
f 27/81/5 31/27/4 28/29/7
f 29/9/1 25/11/8 28/10/7
f 28/10/7 25/8/8 27/11/5
f 29/10/1 32/8/6 30/11/2
f 33/10/8 37/8/1 34/11/3
f 34/10/3 38/8/2 35/11/5
f 35/82/5 39/30/9 36/32/7
f 37/9/1 33/11/8 36/10/7
f 36/10/7 33/8/8 35/11/5
f 37/10/1 40/8/6 38/11/2
f 41/83/8 45/33/1 42/35/3
f 42/10/3 46/8/2 43/11/5
f 43/84/5 47/36/9 44/38/7
f 45/9/1 41/11/8 44/10/7
f 44/10/7 41/8/8 43/11/5
f 45/10/1 48/8/6 46/11/2
f 49/85/8 53/39/1 50/41/3
f 50/10/3 54/8/2 51/11/5
f 51/86/5 55/42/9 52/44/10
f 53/9/1 49/11/8 52/10/10
f 52/10/10 49/8/8 51/11/5
f 53/10/1 56/8/6 54/11/2
f 57/87/8 61/45/1 58/47/3
f 58/10/3 62/8/2 59/11/5
f 59/88/5 63/48/9 60/50/10
f 61/45/1 57/87/8 60/50/10
f 60/10/10 57/8/8 59/11/5
f 61/10/1 64/8/6 62/11/2
f 65/89/8 69/51/1 66/53/3
f 66/10/3 70/8/2 67/11/5
f 67/90/5 71/54/9 68/56/7
f 69/9/1 65/11/8 68/10/7
f 68/10/7 65/8/8 67/11/5
f 69/10/1 72/8/6 70/11/2
f 73/91/8 77/57/1 74/59/3
f 74/10/3 78/8/2 75/11/5
f 75/92/5 79/60/9 76/62/7
f 77/9/1 73/11/8 76/10/7
f 76/10/7 73/8/8 75/11/5
f 77/10/1 80/8/6 78/11/2
f 81/93/8 85/63/1 82/65/3
f 82/10/3 86/8/2 83/11/5
f 83/94/5 87/66/9 84/68/10
f 85/9/1 81/11/8 84/10/10
f 84/10/10 81/8/8 83/11/5
f 85/10/1 88/8/6 86/11/2
f 89/95/8 93/69/1 90/71/3
f 90/10/3 94/8/2 91/11/5
f 91/96/5 95/72/9 92/74/10
f 93/9/1 89/11/8 92/10/10
f 92/10/10 89/8/8 91/11/5
f 93/10/1 96/8/6 94/11/2
