# Blender v2.67 (sub 0) OBJ File: 'wygrana.blend'
# www.blender.org
o Cube
v 0.140766 -2.373484 -3.977191
v 0.140766 -2.373484 3.977191
v -0.140766 -2.373484 3.977190
v -0.140766 -2.373484 -3.977193
v 0.140766 2.373484 -3.977189
v 0.140766 2.373484 3.977194
v -0.140766 2.373484 3.977190
v -0.140766 2.373484 -3.977191
vt 0.000000 0.000000
vt 0.999900 0.000100
vt 0.999900 0.999900
vt 0.000100 0.999900
vt 0.000100 0.000100
vn 0.000000 -1.000000 0.000000
vn -0.000000 1.000000 0.000000
vn 1.000000 -0.000000 0.000000
vn -0.000003 -0.000001 1.000000
vn -1.000000 -0.000000 -0.000000
vn 0.000006 0.000000 -1.000000
vn -0.000014 0.000000 1.000000
vn 0.000008 0.000000 -1.000000
s off
f 1/1/1 2/1/1 3/1/1
f 5/1/2 8/1/2 7/1/2
f 1/2/3 5/3/3 6/4/3
f 2/1/4 6/1/4 3/1/4
f 3/1/5 7/1/5 4/1/5
f 5/1/6 1/1/6 4/1/6
f 4/1/1 1/1/1 3/1/1
f 6/1/2 5/1/2 7/1/2
f 2/5/3 1/2/3 6/4/3
f 6/1/7 7/1/7 3/1/7
f 7/1/5 8/1/5 4/1/5
f 8/1/8 5/1/8 4/1/8
