# Blender v2.67 (sub 0) OBJ File: 'lava.blend'
# www.blender.org
o Cube
v 2.473593 0.051021 -2.408558
v 2.473593 0.051021 2.408558
v -2.473593 0.051021 2.408558
v -2.473592 0.051021 -2.408559
v 2.473594 -0.051021 -2.408557
v 2.473591 -0.051021 2.408560
v -2.473594 -0.051021 2.408557
v -2.473593 -0.051021 -2.408558
vt 0.999929 0.000071
vt 0.999929 0.500000
vt 0.500000 0.500000
vt 0.000000 0.000000
vt 0.000071 0.500000
vt 0.000071 0.000071
vt 0.500000 0.000071
vn 0.000000 -1.000000 0.000000
vn -0.000000 1.000000 0.000000
vn -1.000000 -0.000012 0.000000
vn 0.000000 -0.000014 -1.000000
vn 1.000000 -0.000007 0.000000
vn -0.000000 0.000009 1.000000
vn -1.000000 0.000016 -0.000001
vn 0.000000 0.000005 -1.000000
s off
f 1/1/1 2/2/1 3/3/1
f 5/4/2 8/4/2 7/4/2
f 1/4/3 5/4/3 2/4/3
f 2/4/4 6/4/4 3/4/4
f 3/3/5 7/5/5 8/6/5
f 5/4/6 1/4/6 8/4/6
f 4/7/1 1/1/1 3/3/1
f 6/4/2 5/4/2 7/4/2
f 5/4/7 6/4/7 2/4/7
f 6/4/8 7/4/8 3/4/8
f 4/7/5 3/3/5 8/6/5
f 1/4/6 4/4/6 8/4/6
