# Blender v2.67 (sub 0) OBJ File: 'gracz.blend'
# www.blender.org
o Cube_Cube.009
v -0.388472 2.082024 0.399744
v -0.388472 2.082024 -0.315641
v 0.388100 2.082024 -0.315641
v 0.388100 2.082024 0.399744
v -0.388472 2.873913 0.399744
v -0.388472 2.873913 -0.315641
v 0.388100 2.873913 -0.315641
v 0.388100 2.873913 0.399744
v -0.514987 0.976513 0.601785
v -0.514987 0.834896 0.166934
v -0.968538 0.834896 0.166934
v -0.968538 0.976513 0.601785
v -0.514987 2.147384 0.220470
v -0.514987 2.005767 -0.214381
v -0.968538 2.005767 -0.214381
v -0.968538 2.147384 0.220470
v 0.949677 0.976513 0.601785
v 0.949677 0.834896 0.166934
v 0.496126 0.834896 0.166934
v 0.496126 0.976513 0.601785
v 0.949677 2.147384 0.220470
v 0.949677 2.005767 -0.214381
v 0.496126 2.005767 -0.214381
v 0.496126 2.147384 0.220470
v -0.492986 -0.942022 0.198821
v -0.492986 -0.942022 -0.258508
v -0.946537 -0.942022 -0.258508
v -0.946537 -0.942022 0.198821
v -0.492986 0.289376 0.198821
v -0.492987 0.289376 -0.258508
v -0.946537 0.289376 -0.258508
v -0.946537 0.289376 0.198821
v 0.511707 2.251554 0.198821
v 0.511707 2.251554 -0.258508
v -0.518595 2.251554 -0.258508
v -0.518595 2.251554 0.198821
v 0.511707 -0.103245 0.198821
v 0.511706 -0.103245 -0.258508
v -0.518595 -0.103245 -0.258508
v -0.518595 -0.103245 0.198821
v 0.949677 -0.942022 0.198821
v 0.949677 -0.942022 -0.258508
v 0.496126 -0.942022 -0.258508
v 0.496126 -0.942022 0.198821
v 0.949677 0.289376 0.198821
v 0.949677 0.289376 -0.258508
v 0.496126 0.289376 -0.258508
v 0.496126 0.289376 0.198821
vt 0.675375 0.183793
vt 0.491582 0.184357
vt 0.674811 0.000000
vt 0.000564 0.728038
vt 0.000000 0.544245
vt 0.183147 0.727478
vt 0.675375 0.368150
vt 0.491582 0.368714
vt 0.491018 0.184921
vt 0.246073 0.728038
vt 0.245509 0.544245
vt 0.428092 0.543685
vt 0.000000 0.000000
vt 0.491018 0.369277
vt 0.674811 0.368714
vt 0.675375 0.552507
vt 0.182793 0.843632
vt 0.075450 0.843303
vt 0.075804 0.728038
vt 0.784452 0.465873
vt 0.783589 0.184686
vt 0.890932 0.184357
vt 0.999137 0.468605
vt 1.000000 0.749791
vt 0.891795 0.468934
vt 0.428302 0.843632
vt 0.320959 0.843303
vt 0.321313 0.728038
vt 0.892657 0.465872
vt 0.891795 0.184686
vt 0.999137 0.184357
vt 0.890932 0.468605
vt 0.891794 0.749791
vt 0.783589 0.468934
vt 0.782718 0.184357
vt 0.675375 0.184028
vt 0.675732 0.067733
vt 0.459818 0.837318
vt 0.458947 0.553400
vt 0.566290 0.553070
vt 0.783589 0.468275
vt 0.675375 0.184686
vt 0.489353 0.000000
vt 0.491018 0.542937
vt 0.245509 0.000748
vt 0.001666 0.543685
vt 0.000000 0.000748
vt 0.243843 0.000000
vt 0.290490 0.844662
vt 0.183147 0.844333
vt 0.183504 0.728038
vt 0.568032 0.837318
vt 0.567161 0.553400
vt 0.674504 0.553070
vt 0.782718 0.468605
vt 0.783589 0.752524
vt 0.675375 0.468934
vt 0.491018 0.000564
vt 0.182583 0.543685
vt 0.674811 0.184357
vt 0.428656 0.727478
vt 0.491582 0.553070
vt 0.183147 0.728368
vt 0.891795 0.465543
vt 0.892657 0.750121
vt 0.428656 0.728367
vt 1.000000 0.465543
vt 0.784452 0.750121
vt 0.783075 0.068062
vt 0.567161 0.836989
vt 0.676246 0.468605
vt 0.247175 0.543685
vt 0.245509 0.542937
vt 0.290846 0.728368
vt 0.675375 0.836989
vt 0.676246 0.752853
vn -0.577349 0.577349 0.577349
vn -0.577349 0.577349 -0.577349
vn -0.577349 -0.577349 0.577349
vn 0.577349 0.577349 -0.577349
vn -0.577349 -0.577349 -0.577349
vn 0.577349 0.577349 0.577349
vn 0.577349 -0.577349 0.577349
vn 0.577349 -0.577349 -0.577349
vn -0.577349 0.370190 -0.727744
vn -0.577349 0.727744 0.370190
vn 0.577349 0.727744 0.370190
vn -0.577349 -0.727744 -0.370159
vn 0.577349 -0.727744 -0.370190
vn 0.577349 -0.370190 0.727744
vn -0.577349 -0.370159 0.727744
vn 0.577349 0.727744 0.370159
vn 0.577349 0.370159 -0.727744
s 1
f 5/1/1 6/2/2 1/3/3
f 6/4/2 7/5/4 2/6/5
f 7/7/4 8/8/6 4/9/7
f 8/10/6 5/11/1 1/12/3
f 1/13/3 2/13/5 3/13/8
f 8/14/6 7/15/4 6/16/2
f 9/13/9 10/13/10 11/13/11
f 13/17/12 16/18/13 15/19/14
f 9/13/9 13/13/12 10/13/10
f 10/20/10 14/21/15 15/22/14
f 11/13/11 15/13/14 16/13/13
f 13/23/12 9/24/9 16/25/13
f 17/13/9 18/13/10 19/13/16
f 21/26/12 24/27/13 23/28/14
f 17/13/9 21/13/12 18/13/10
f 18/29/10 22/30/15 23/31/14
f 19/13/16 23/13/14 24/13/13
f 21/32/12 17/33/9 24/34/13
f 25/13/2 26/13/1 27/13/6
f 29/35/5 32/36/8 31/37/7
f 25/13/2 29/13/5 26/13/1
f 26/38/1 30/39/3 31/40/7
f 27/13/6 31/13/7 32/13/8
f 29/35/5 25/41/2 32/42/8
f 33/13/6 34/13/4 35/13/2
f 37/13/7 40/13/3 38/13/8
f 33/13/6 37/13/7 38/13/8
f 34/43/4 38/44/8 35/45/2
f 35/13/2 39/13/5 36/13/1
f 37/46/7 33/47/6 36/48/1
f 41/13/2 42/13/1 43/13/6
f 45/49/5 48/50/8 47/51/7
f 41/13/2 45/13/5 42/13/1
f 42/52/1 46/53/3 47/54/7
f 43/13/6 47/13/7 48/13/8
f 45/55/5 41/56/2 48/57/8
f 6/2/2 2/58/5 1/3/3
f 7/5/4 3/59/8 2/6/5
f 3/60/8 7/7/4 4/9/7
f 4/61/7 8/10/6 1/12/3
f 4/13/7 1/13/3 3/13/8
f 5/62/1 8/14/6 6/16/2
f 12/13/17 9/13/9 11/13/11
f 14/63/15 13/17/12 15/19/14
f 13/13/12 14/13/15 10/13/10
f 11/64/11 10/20/10 15/22/14
f 12/13/17 11/13/11 16/13/13
f 9/24/9 12/65/17 16/25/13
f 20/13/17 17/13/9 19/13/16
f 22/66/15 21/26/12 23/28/14
f 21/13/12 22/13/15 18/13/10
f 19/67/16 18/29/10 23/31/14
f 20/13/17 19/13/16 24/13/13
f 17/33/9 20/68/17 24/34/13
f 28/13/4 25/13/2 27/13/6
f 30/69/3 29/35/5 31/37/7
f 29/13/5 30/13/3 26/13/1
f 27/70/6 26/38/1 31/40/7
f 28/13/4 27/13/6 32/13/8
f 25/41/2 28/71/4 32/42/8
f 36/13/1 33/13/6 35/13/2
f 40/13/3 39/13/5 38/13/8
f 34/13/4 33/13/6 38/13/8
f 38/44/8 39/72/5 35/45/2
f 39/13/5 40/13/3 36/13/1
f 40/73/3 37/46/7 36/48/1
f 44/13/4 41/13/2 43/13/6
f 46/74/3 45/49/5 47/51/7
f 45/13/5 46/13/3 42/13/1
f 43/75/6 42/52/1 47/54/7
f 44/13/4 43/13/6 48/13/8
f 41/56/2 44/76/4 48/57/8
